<svg version="1.0" id="Capa_1" xmlns="http://www.w3.org/2000/svg" xmlns:xlink="http://www.w3.org/1999/xlink" x="0px" y="0px" width="1200px" height="1199.999px" viewBox="0 0 1200 1199.999" enable-background="new 0 0 1200 1199.999" xml:space="preserve">
<g>
	<path fill="#55398E" d="M713.367,339.866c-35.945-34.374-82.169-53.372-129.921-53.372c-45.584,0-87.44,17.499-117.766,49.179&#10;&#9;&#9;L200.334,612.81c-64.014,67.086-57.375,178.083,15.039,247.323c36.003,34.445,82.184,53.372,129.98,53.372&#10;&#9;&#9;c45.641,0,87.396-17.501,117.765-49.18l265.346-277.138C792.478,520.159,785.708,409.223,713.367,339.866z M700.307,560.225&#10;&#9;&#9;L571.77,694.514c-99.669-31.622-157.598-124.52-183.774-178.606L228.375,667.74c-25.099,25.099-33.354,56.488-33.354,56.488&#10;&#9;&#9;c-20.907-33.485,18.795-73.26,18.795-73.26l161.383-164.294l118.653-124.098c22.872-23.92,54.741-37.081,89.594-37.081&#10;&#9;&#9;c37.677,0,74.278,15.082,102.973,42.525C743.43,422.515,749.546,508.774,700.307,560.225z" style="fill: rgb(237, 7, 30);"/>
	<path fill="#FDE8D7" d="M912.224,634.197h-54.45c-68.046,0-123.56,51.334-131.479,117.285l0.669,37.677&#10;&#9;&#9;c10.54,62.952,64.874,110.996,130.809,110.996h54.45c65.892,0,120.225-48.044,130.824-110.996l0.581-37.677&#10;&#9;&#9;C1035.797,685.531,980.255,634.197,912.224,634.197z" style="fill: rgb(252, 253, 252);"/>
	<g>
		<path fill="#ED59A3" d="M1043.629,751.482c-7.833-65.95-63.374-117.285-131.406-117.285h-54.45&#10;&#9;&#9;&#9;c-68.046,0-123.56,51.334-131.479,117.285H1043.629z" style="fill: rgb(12, 9, 236);"/>
		<path fill="#ED59A3" d="M726.964,789.159c10.54,62.952,64.874,110.996,130.809,110.996h54.45&#10;&#9;&#9;&#9;c65.892,0,120.225-48.044,130.824-110.996H726.964z" style="fill: rgb(12, 9, 236);"/>
	</g>
</g>
</svg>